<?xml version="1.0" standalone="no"?><!DOCTYPE svg PUBLIC "-//W3C//DTD SVG 1.1//EN" "http://www.w3.org/Graphics/SVG/1.1/DTD/svg11.dtd"><svg t="1500111766132" class="icon" style="" viewBox="0 0 1024 1024" version="1.1" xmlns="http://www.w3.org/2000/svg" p-id="9397" xmlns:xlink="http://www.w3.org/1999/xlink" width="128" height="128"><defs><style type="text/css"></style></defs><path d="M511.998 1020.743C231.013 1020.743 3.257 793.058 3.257 512c0-280.917 227.756-508.744 508.741-508.744 280.914 0 508.744 227.828 508.744 508.744 0 281.058-227.83 508.743-508.744 508.743z m0-145.283c74.237 0 143.155-22.502 200.716-60.684l-503.35-503.35c-38.257 57.49-60.752 126.335-60.752 200.645 0 200.645 162.668 363.389 363.386 363.389z m0-726.778c-74.17 0-143.082 22.499-200.575 60.683l503.351 503.28c38.182-57.562 60.614-126.408 60.614-200.574 0-200.714-162.675-363.389-363.39-363.389z" fill="#ffffff" p-id="9398"></path></svg>