<?xml version="1.0" standalone="no"?><!DOCTYPE svg PUBLIC "-//W3C//DTD SVG 1.1//EN" "http://www.w3.org/Graphics/SVG/1.1/DTD/svg11.dtd"><svg t="1498800109956" class="icon" style="" viewBox="0 0 1024 1024" version="1.1" xmlns="http://www.w3.org/2000/svg" p-id="4902" xmlns:xlink="http://www.w3.org/1999/xlink" width="32" height="32"><defs><style type="text/css"></style></defs><path d="M524.929293 117.139394C296.727273 109.511111 108.606061 297.761616 116.622222 525.834343c7.369697 211.781818 181.39798 381.284848 394.860606 381.284848 218.246465 0 395.119192-177.00202 395.119192-395.377778C906.60202 298.149495 736.969697 124.121212 524.929293 117.139394zM511.482828 287.935354c22.49697 0 40.856566 18.230303 40.856566 40.856566 0 22.49697-18.230303 40.856566-40.856566 40.856566-22.49697 0-40.856566-18.359596-40.856566-40.856566C470.626263 306.294949 488.856566 287.935354 511.482828 287.935354zM511.482828 736.064646 511.482828 736.064646c-22.49697 0-40.856566-18.230303-40.856566-40.856566L470.626263 437.656566c0-22.49697 18.230303-40.856566 40.856566-40.856566l0 0c22.49697 0 40.856566 18.230303 40.856566 40.856566l0 257.551515C552.339394 717.705051 533.979798 736.064646 511.482828 736.064646z" p-id="4903" fill="#ffffff"></path></svg>