<?xml version="1.0" standalone="no"?><!DOCTYPE svg PUBLIC "-//W3C//DTD SVG 1.1//EN" "http://www.w3.org/Graphics/SVG/1.1/DTD/svg11.dtd"><svg t="1498729676373" class="icon" style="" viewBox="0 0 1024 1024" version="1.1" xmlns="http://www.w3.org/2000/svg" p-id="4086" xmlns:xlink="http://www.w3.org/1999/xlink" width="256" height="256"><defs><style type="text/css"></style></defs><path d="M512.70656 681.239893c-16.892587 0-30.610773 13.673813-30.610773 30.614187 0 16.848213 13.718187 30.610773 30.610773 30.610773 16.940373 0 30.65856-13.765973 30.65856-30.610773C543.36512 694.913707 529.646933 681.239893 512.70656 681.239893z" p-id="4087" fill="#ffffff"></path><path d="M512.70656 31.82592c-263.898453 0-477.866667 213.920427-477.866667 477.866667 0 263.898453 213.968213 477.81888 477.866667 477.81888 263.94624 0 477.866667-213.920427 477.866667-477.81888C990.573227 245.746347 776.6528 31.82592 512.70656 31.82592zM727.094613 754.694827c0 27.067733-21.93408 48.9984-49.001813 48.9984l-330.728107 0c-27.11552 0-49.046187-21.930667-49.046187-48.9984L298.318507 264.645973c0-27.067733 21.930667-49.001813 49.046187-49.001813l330.728107 0c27.067733 0 49.001813 21.93408 49.001813 49.001813l0 125.719893-61.228373 0L665.86624 303.844693c0-14.885547-11.994453-26.924373-26.97216-26.924373l-252.327253 0c-14.977707 0-27.019947 12.038827-27.019947 26.924373l0 301.37344c0 14.98112 12.038827 26.927787 27.019947 26.927787l252.327253 0c10.38336 0 19.063467-5.92896 23.565653-14.465707l1.307307 1.071787 0-3.078827c1.35168-3.1744 2.0992-6.71744 2.0992-10.45504l0-82.971307 61.228373 0L727.094613 754.694827zM840.772267 486.406827l-212.845227 0 0 56.18688-104.25344-86.285653 104.25344-86.285653 0 56.183467 212.845227 0L840.772267 486.406827z" p-id="4088" fill="#ffffff"></path></svg>