<?xml version="1.0" standalone="no"?><!DOCTYPE svg PUBLIC "-//W3C//DTD SVG 1.1//EN" "http://www.w3.org/Graphics/SVG/1.1/DTD/svg11.dtd"><svg t="1498745782132" class="icon" style="" viewBox="0 0 1024 1024" version="1.1" xmlns="http://www.w3.org/2000/svg" p-id="1002" xmlns:xlink="http://www.w3.org/1999/xlink" width="32" height="32"><defs><style type="text/css"></style></defs><path d="M926.532267 926.532267a51.2 51.2 0 0 1-72.413867 0l-84.48-84.48 72.413867-72.413867 84.48 84.48a51.217067 51.217067 0 0 1 0 72.413867z m-724.087467-144.827734c-159.965867-159.965867-159.965867-419.310933 0-579.259733 159.965867-159.965867 419.293867-159.965867 579.259733 0 159.965867 159.965867 159.965867 419.310933 0 579.259733-159.9488 159.965867-419.293867 159.965867-579.259733 0z m530.9952-530.978133c-133.290667-133.290667-349.422933-133.290667-482.7136 0-133.307733 133.307733-133.307733 349.422933 0 482.7136s349.422933 133.307733 482.7136 0 133.290667-349.422933 0-482.7136z" fill="#5D5D5D" p-id="1003"></path></svg>