<?xml version="1.0" standalone="no"?><!DOCTYPE svg PUBLIC "-//W3C//DTD SVG 1.1//EN" "http://www.w3.org/Graphics/SVG/1.1/DTD/svg11.dtd"><svg t="1499988383259" class="icon" style="" viewBox="0 0 1024 1024" version="1.1" xmlns="http://www.w3.org/2000/svg" p-id="998" xmlns:xlink="http://www.w3.org/1999/xlink" width="48" height="48"><defs><style type="text/css"></style></defs><path d="M511.513 64.38C265.097 64.38 65.39 264.114 65.39 510.495c0 246.385 199.706 446.126 446.122 446.126 246.349 0 446.122-199.742 446.122-446.126 0-246.38-199.773-446.117-446.122-446.117z m-1.338 764.158c-35.631 0-64.451-28.824-64.451-64.452 0-35.595 28.819-64.452 64.451-64.452 35.627 0 64.452 28.857 64.452 64.452 0 35.628-28.825 64.452-64.452 64.452z m84.406-479.119c0 0.116-0.032 0.231-0.064 0.467l-0.057 0.204-0.089 0.462-0.027 0.173-0.057 0.347-0.063 0.288s-54.427 253.324-54.454 253.792c0 0 3.748-19.084 0 0.031-3.747 19.116-13.273 29.596-29.596 29.596-16.349 0-24.93-12.114-29.973-31.748s-53.004-246.06-53.036-246.265c0 0-0.027-0.089-0.057-0.204l-0.032-0.2c-0.032-0.147-0.084-0.293-0.084-0.44l-0.057-0.348-0.058-0.32c-0.026-0.084-0.057-0.32-0.057-0.32l-0.057-0.347-0.058-0.148-0.089-0.493s-0.031-0.2-0.057-0.288l-0.057-0.32s-0.032-0.232-0.09-0.462c0 0 0-0.09-0.026-0.178l-0.032-0.231s-0.084-0.289-0.115-0.436l-0.058-0.347-0.057-0.326-0.057-0.288-0.057-0.347-0.032-0.173-0.09-0.462-0.057-0.325s-0.052-0.231-0.052-0.347a86.834 86.834 0 0 1-1.8-17.483c0-47.635 38.535-86.206 86.202-86.206 47.661 0 86.206 38.571 86.206 86.206a87.123 87.123 0 0 1-1.806 17.486z" fill="#f46460" p-id="999"></path></svg>