<svg id="图层_1" data-name="图层 1" xmlns="http://www.w3.org/2000/svg" viewBox="0 0 61.86 61.86"><defs><style>.cls-1{fill:#fff;stroke:#000;stroke-miterlimit:10;}.cls-2{fill:#d81e06;}</style></defs><title>失败</title><circle class="cls-1" cx="30.29" cy="30.93" r="24"/><path class="cls-2" d="M32.64,1.07A30.93,30.93,0,1,0,63.57,32,30.94,30.94,0,0,0,32.64,1.07Zm14.1,41.06a2.86,2.86,0,0,1-4,4L32.57,36,22.45,46.18a2.87,2.87,0,0,1-4,0,2.84,2.84,0,0,1,0-4L28.53,32,18.4,21.87a2.86,2.86,0,0,1,4-4L32.57,28,42.7,17.82a2.84,2.84,0,0,1,4,0,2.87,2.87,0,0,1,0,4L36.62,32Z" transform="translate(-1.71 -1.07)"/></svg>